<?xml version="1.0" encoding="utf-8"?>
<!-- Generator: Adobe Illustrator 15.0.0, SVG Export Plug-In . SVG Version: 6.00 Build 0)  -->
<!DOCTYPE svg PUBLIC "-//W3C//DTD SVG 1.1//EN" "http://www.w3.org/Graphics/SVG/1.1/DTD/svg11.dtd">
<svg version="1.1" id="Layer_1" xmlns="http://www.w3.org/2000/svg" xmlns:xlink="http://www.w3.org/1999/xlink" x="0px" y="0px"
	 width="393px" height="79.91px" viewBox="0 0 393 79.91" enable-background="new 0 0 393 79.91" xml:space="preserve">
<g>
	<path fill="#E4E7DD" d="M39.457,16.924h0.207l15.899,32.143h0.206l7.572-31.109h5.781L57.627,64.896h-0.207L39.664,28.9h-0.207
		L21.7,64.896h-0.207L10,17.958h5.781l7.571,31.109h0.207L39.457,16.924z"/>
	<path fill="#E4E7DD" d="M123.154,31.585h-0.207v32.278h-5.712V16.924h0.207l31.384,33.312h0.207V17.958h5.712v46.938h-0.207
		L123.154,31.585z"/>
	<path fill="#E4E7DD" d="M178.311,63.863V17.958h27.53v5.367h-21.818v14.522h16.518v5.37h-16.518v15.278h21.818v5.368H178.311z"/>
	<path fill="#E4E7DD" d="M232.387,31.585h-0.207v32.278h-5.713V16.924h0.207l31.384,33.312h0.207V17.958h5.713v46.938h-0.208
		L232.387,31.585z"/>
	<path fill="#E4E7DD" d="M333.422,41.014c0,3.304-0.632,6.413-1.892,9.326c-1.264,2.915-2.995,5.448-5.198,7.605
		c-2.201,2.156-4.771,3.865-7.707,5.127c-2.937,1.262-6.081,1.893-9.43,1.893c-3.351,0-6.504-0.631-9.464-1.893
		c-2.959-1.262-5.54-2.971-7.742-5.127c-2.203-2.157-3.936-4.69-5.196-7.605c-1.263-2.913-1.894-6.022-1.894-9.326
		c0-3.349,0.631-6.493,1.894-9.429c1.261-2.936,2.993-5.496,5.196-7.675c2.202-2.179,4.783-3.899,7.742-5.163
		c2.96-1.26,6.113-1.891,9.464-1.891c3.349,0,6.493,0.63,9.43,1.891c2.936,1.263,5.506,2.983,7.707,5.163
		c2.203,2.179,3.935,4.739,5.198,7.675C332.79,34.521,333.422,37.665,333.422,41.014z M327.503,40.945
		c0-2.651-0.481-5.119-1.445-7.405c-0.963-2.287-2.271-4.263-3.923-5.933c-1.652-1.669-3.591-2.983-5.816-3.944
		c-2.226-0.958-4.623-1.44-7.191-1.44c-2.524,0-4.898,0.482-7.124,1.44c-2.225,0.961-4.163,2.274-5.816,3.944
		c-1.651,1.669-2.959,3.646-3.923,5.933c-0.963,2.286-1.445,4.754-1.445,7.405c0,2.604,0.482,5.05,1.445,7.337
		c0.964,2.286,2.271,4.264,3.923,5.932c1.653,1.67,3.592,2.983,5.816,3.942c2.226,0.961,4.6,1.439,7.124,1.439
		c2.568,0,4.966-0.479,7.191-1.439c2.226-0.959,4.164-2.272,5.816-3.942c1.651-1.668,2.96-3.646,3.923-5.932
		C327.021,45.995,327.503,43.55,327.503,40.945z"/>
	<path fill="#E4E7DD" d="M366.81,23.119v40.745h-5.713V23.119h-14.314v-5.161h34.343v5.161H366.81z"/>
</g>
<path fill="#E4E7DD" d="M90.891,27.816c0,0-4.292,0.159-4.292,6.087c0,3.843,0,31.395,0,31.395h6.087V16.924h-1.762l-0.32,1.762
	l0.286,0.126L90.891,27.816z"/>
<path fill="#D0D1CD" d="M94.159,27.816c0,0,4.292,0.159,4.292,6.087c0,3.843,0,31.395,0,31.395h-6.086V16.924h1.762l0.321,1.762
	l-0.287,0.126L94.159,27.816z"/>
</svg>
